# xmcd
#
# Track frame offsets:
#	150
#	11635
#	27760
#	42235
#	56185
#	72610
#	84910
#	100060
#	116335
#	131033
#	147010
#	164935
#	176785
#	194560
#
# Disc length: 2785
#
# Revision: 1
# Processed by: cddbd v1.5.1PL0 Copyright (c) Steve Scherf et al.
# Submitted via: audiograbber 1.81.03
# Normalized: r0:DSETVAR1
#
DISCID=cb0adf0e
DTITLE=Various Artist - Spotlight On Hits - Country Vol 14
DYEAR=1900
DGENRE=
TTITLE0=Tracy Byrd - Holding Heaven
TTITLE1=Rick Van Shelton - A Couple of Good Years Left
TTITLE2=Vince Gill - One More Last Chance
TTITLE3=Toby Keith - He Ain't Worth Missing
TTITLE4=Ronnie Milsap - True Believer
TTITLE5=John Anderson - I Fell in the Water
TTITLE6=Suzy Bogguss - Just Like the Weather
TTITLE7=McBride and the Ride - Hurry Sundown
TTITLE8=Collin Raye - That Was a River
TTITLE9=Lorrie Morgan - Half Enough
TTITLE10=Lee Roy Parnell - On the Road
TTITLE11=Martina McBride - My Babe Loves Me
TTITLE12=Brooks and Dunn - She Used to Be Mine
TTITLE13=Mary-Chapin Carpenter - The Bug
EXTD=
EXTT0=
EXTT1=
EXTT2=
EXTT3=
EXTT4=
EXTT5=
EXTT6=
EXTT7=
EXTT8=
EXTT9=
EXTT10=
EXTT11=
EXTT12=
EXTT13=
PLAYORDER=
